<svg width="939" height="232" viewBox="0 0 939 232" fill="none" xmlns="http://www.w3.org/2000/svg">
<path d="M558.577 109.49H536.058V80.1639H558.577V40.8875H592.878V80.1639H624.299V109.49H592.878V159.24C592.878 162.208 593.14 165.001 593.664 167.619C594.362 170.063 595.584 172.158 597.33 173.904C599.773 176.697 603.265 178.093 607.803 178.093C610.771 178.093 613.127 177.831 614.873 177.308C616.619 176.609 618.277 175.737 619.848 174.689L629.536 204.801C625.521 206.721 621.157 208.118 616.444 208.991C611.905 210.038 606.843 210.562 601.257 210.562C594.798 210.562 588.951 209.602 583.714 207.681C578.651 205.587 574.375 202.794 570.883 199.302C562.679 191.447 558.577 180.275 558.577 165.786V109.49Z" fill="#032741"/>
<path d="M458.154 75.9744C468.104 75.9744 477.181 77.72 485.386 81.2112C493.765 84.5279 500.922 89.2411 506.857 95.3507C512.966 101.286 517.68 108.443 520.996 116.822C524.487 125.201 526.233 134.365 526.233 144.315C526.233 154.265 524.487 163.43 520.996 171.809C517.68 180.188 512.966 187.432 506.857 193.542C500.922 199.477 493.765 204.19 485.386 207.681C477.181 210.998 468.104 212.656 458.154 212.656C448.204 212.656 439.039 210.998 430.66 207.681C422.456 204.19 415.299 199.477 409.189 193.542C403.254 187.432 398.541 180.188 395.05 171.809C391.733 163.43 390.075 154.265 390.075 144.315C390.075 134.365 391.733 125.201 395.05 116.822C398.541 108.443 403.254 101.286 409.189 95.3507C415.299 89.2411 422.456 84.5279 430.66 81.2112C439.039 77.72 448.204 75.9744 458.154 75.9744ZM458.154 180.973C462.518 180.973 466.708 180.188 470.722 178.617C474.912 176.871 478.578 174.427 481.72 171.285C484.862 168.143 487.306 164.303 489.051 159.764C490.972 155.225 491.932 150.076 491.932 144.315C491.932 138.555 490.972 133.405 489.051 128.867C487.306 124.328 484.862 120.488 481.72 117.346C478.578 114.203 474.912 111.847 470.722 110.276C466.708 108.53 462.518 107.657 458.154 107.657C453.615 107.657 449.339 108.53 445.324 110.276C441.309 111.847 437.73 114.203 434.588 117.346C431.446 120.488 428.915 124.328 426.995 128.867C425.249 133.405 424.376 138.555 424.376 144.315C424.376 150.076 425.249 155.225 426.995 159.764C428.915 164.303 431.446 168.143 434.588 171.285C437.73 174.427 441.309 176.871 445.324 178.617C449.339 180.188 453.615 180.973 458.154 180.973Z" fill="#032741"/>
<path d="M307.288 75.9744C317.238 75.9744 326.315 77.72 334.519 81.2112C342.898 84.5279 350.055 89.2411 355.99 95.3507C362.1 101.286 366.813 108.443 370.13 116.822C373.621 125.201 375.367 134.365 375.367 144.315C375.367 154.265 373.621 163.43 370.13 171.809C366.813 180.188 362.1 187.432 355.99 193.542C350.055 199.477 342.898 204.19 334.519 207.681C326.315 210.998 317.238 212.656 307.288 212.656C297.337 212.656 288.173 210.998 279.794 207.681C271.59 204.19 264.433 199.477 258.323 193.542C252.388 187.432 247.675 180.188 244.183 171.809C240.867 163.43 239.208 154.265 239.208 144.315C239.208 134.365 240.867 125.201 244.183 116.822C247.675 108.443 252.388 101.286 258.323 95.3507C264.433 89.2411 271.59 84.5279 279.794 81.2112C288.173 77.72 297.337 75.9744 307.288 75.9744ZM307.288 180.973C311.652 180.973 315.841 180.188 319.856 178.617C324.045 176.871 327.711 174.427 330.853 171.285C333.995 168.143 336.439 164.303 338.185 159.764C340.105 155.225 341.065 150.076 341.065 144.315C341.065 138.555 340.105 133.405 338.185 128.867C336.439 124.328 333.995 120.488 330.853 117.346C327.711 114.203 324.045 111.847 319.856 110.276C315.841 108.53 311.652 107.657 307.288 107.657C302.749 107.657 298.472 108.53 294.457 110.276C290.442 111.847 286.864 114.203 283.722 117.346C280.58 120.488 278.048 124.328 276.128 128.867C274.383 133.405 273.51 138.555 273.51 144.315C273.51 150.076 274.383 155.225 276.128 159.764C278.048 164.303 280.58 168.143 283.722 171.285C286.864 174.427 290.442 176.871 294.457 178.617C298.472 180.188 302.749 180.973 307.288 180.973Z" fill="#032741"/>
<path d="M883.989 157.036H896.867V163.213H897.705C898.961 161.05 900.916 159.2 903.568 157.664C906.22 156.129 909.501 155.361 913.41 155.361C916.69 155.361 919.796 156.059 922.728 157.455C925.729 158.781 928.347 160.666 930.58 163.109C932.884 165.482 934.699 168.344 936.025 171.694C937.351 175.044 938.014 178.709 938.014 182.687C938.014 186.666 937.351 190.331 936.025 193.681C934.699 197.031 932.884 199.928 930.58 202.371C928.347 204.744 925.729 206.629 922.728 208.025C919.796 209.351 916.69 210.014 913.41 210.014C909.501 210.014 906.22 209.246 903.568 207.711C900.916 206.175 898.961 204.325 897.705 202.162H896.867L897.705 209.49V230.954H883.989V157.036ZM910.583 197.345C912.398 197.345 914.108 196.996 915.713 196.298C917.388 195.6 918.854 194.623 920.11 193.367C921.367 192.11 922.379 190.575 923.147 188.76C923.915 186.945 924.298 184.921 924.298 182.687C924.298 180.454 923.915 178.43 923.147 176.615C922.379 174.8 921.367 173.265 920.11 172.008C918.854 170.752 917.388 169.775 915.713 169.077C914.108 168.379 912.398 168.03 910.583 168.03C908.768 168.03 907.023 168.379 905.348 169.077C903.743 169.705 902.312 170.647 901.055 171.903C899.799 173.16 898.787 174.695 898.019 176.51C897.251 178.325 896.867 180.384 896.867 182.687C896.867 184.991 897.251 187.05 898.019 188.865C898.787 190.68 899.799 192.215 901.055 193.471C902.312 194.728 903.743 195.705 905.348 196.403C907.023 197.031 908.768 197.345 910.583 197.345Z" fill="#23A3FF"/>
<path d="M859.781 201.638H858.943C857.338 204.221 855.174 206.28 852.452 207.815C849.73 209.281 846.624 210.014 843.134 210.014C836.642 210.014 831.791 208.025 828.58 204.046C825.439 200.068 823.869 194.763 823.869 188.132V157.036H837.584V186.457C837.584 190.156 838.387 192.913 839.993 194.728C841.668 196.473 844.076 197.345 847.217 197.345C849.101 197.345 850.742 196.961 852.138 196.194C853.603 195.356 854.825 194.274 855.802 192.948C856.849 191.552 857.617 189.947 858.106 188.132C858.664 186.247 858.943 184.258 858.943 182.164V157.036H872.659V208.339H859.781V201.638Z" fill="#23A3FF"/>
<path d="M788.765 155.361C792.743 155.361 796.373 156.059 799.653 157.455C803.004 158.781 805.865 160.666 808.239 163.109C810.682 165.482 812.566 168.344 813.892 171.694C815.288 175.044 815.986 178.709 815.986 182.687C815.986 186.666 815.288 190.331 813.892 193.681C812.566 197.031 810.682 199.928 808.239 202.371C805.865 204.744 803.004 206.629 799.653 208.025C796.373 209.351 792.743 210.014 788.765 210.014C784.786 210.014 781.121 209.351 777.771 208.025C774.491 206.629 771.629 204.744 769.186 202.371C766.813 199.928 764.928 197.031 763.532 193.681C762.206 190.331 761.543 186.666 761.543 182.687C761.543 178.709 762.206 175.044 763.532 171.694C764.928 168.344 766.813 165.482 769.186 163.109C771.629 160.666 774.491 158.781 777.771 157.455C781.121 156.059 784.786 155.361 788.765 155.361ZM788.765 197.345C790.51 197.345 792.185 197.031 793.79 196.403C795.465 195.705 796.931 194.728 798.187 193.471C799.444 192.215 800.421 190.68 801.119 188.865C801.887 187.05 802.271 184.991 802.271 182.687C802.271 180.384 801.887 178.325 801.119 176.51C800.421 174.695 799.444 173.16 798.187 171.903C796.931 170.647 795.465 169.705 793.79 169.077C792.185 168.379 790.51 168.03 788.765 168.03C786.95 168.03 785.24 168.379 783.634 169.077C782.029 169.705 780.598 170.647 779.342 171.903C778.085 173.16 777.073 174.695 776.305 176.51C775.607 178.325 775.258 180.384 775.258 182.687C775.258 184.991 775.607 187.05 776.305 188.865C777.073 190.68 778.085 192.215 779.342 193.471C780.598 194.728 782.029 195.705 783.634 196.403C785.24 197.031 786.95 197.345 788.765 197.345Z" fill="#23A3FF"/>
<path d="M725.008 157.036H737.886V164.156H738.723C739.351 162.899 740.189 161.748 741.236 160.701C742.283 159.654 743.435 158.746 744.691 157.978C746.017 157.211 747.413 156.617 748.879 156.199C750.415 155.78 751.915 155.57 753.381 155.57C755.196 155.57 756.731 155.745 757.988 156.094C759.314 156.443 760.431 156.897 761.338 157.455L757.674 169.914C756.836 169.495 755.894 169.181 754.847 168.972C753.87 168.693 752.648 168.553 751.182 168.553C749.298 168.553 747.588 168.937 746.052 169.705C744.517 170.403 743.19 171.415 742.074 172.741C741.027 174.067 740.189 175.638 739.561 177.452C739.002 179.197 738.723 181.117 738.723 183.211V208.339H725.008V157.036Z" fill="#23A3FF"/>
<path d="M679.564 167.192H716.313C716.523 168.03 716.697 169.042 716.837 170.228C716.976 171.415 717.046 172.601 717.046 173.788C717.046 178.604 716.313 183.141 714.848 187.399C713.382 191.657 711.078 195.461 707.937 198.811C704.587 202.371 700.574 205.128 695.897 207.082C691.22 209.037 685.881 210.014 679.878 210.014C674.434 210.014 669.303 209.037 664.487 207.082C659.671 205.128 655.483 202.406 651.923 198.916C648.364 195.426 645.537 191.308 643.443 186.561C641.349 181.745 640.302 176.51 640.302 170.856C640.302 165.203 641.349 160.003 643.443 155.256C645.537 150.44 648.364 146.287 651.923 142.797C655.483 139.307 659.671 136.585 664.487 134.631C669.303 132.676 674.434 131.699 679.878 131.699C685.951 131.699 691.36 132.746 696.106 134.84C700.923 136.934 705.041 139.831 708.461 143.53L698.724 153.058C696.281 150.475 693.559 148.521 690.557 147.194C687.556 145.798 683.961 145.1 679.773 145.1C676.353 145.1 673.108 145.729 670.036 146.985C666.965 148.172 664.278 149.882 661.974 152.115C659.671 154.349 657.821 157.071 656.425 160.282C655.099 163.423 654.436 166.948 654.436 170.856C654.436 174.765 655.099 178.325 656.425 181.536C657.821 184.677 659.671 187.364 661.974 189.598C664.348 191.831 667.07 193.576 670.141 194.833C673.212 196.019 676.493 196.612 679.983 196.612C683.961 196.612 687.312 196.054 690.034 194.937C692.826 193.751 695.199 192.25 697.153 190.435C698.549 189.179 699.736 187.608 700.713 185.724C701.76 183.769 702.563 181.606 703.121 179.232H679.564V167.192Z" fill="#23A3FF"/>
<path fill-rule="evenodd" clip-rule="evenodd" d="M157.139 9.693C169.229 9.693 179.048 19.5103 179.048 31.6026C179.048 43.6929 169.229 53.5121 157.139 53.5121C145.044 53.5121 135.229 43.6929 135.229 31.6026C135.229 19.5103 145.044 9.693 157.139 9.693Z" fill="#065389"/>
<path fill-rule="evenodd" clip-rule="evenodd" d="M165.204 11.1923C149.7 3.82531 132.75 0.000217618 115.582 0.000217618C51.7908 0.000217618 0 51.7892 0 115.583C0 179.374 51.7908 231.165 115.582 231.165C179.374 231.165 231.167 179.374 231.167 115.583C231.167 89.5448 222.374 64.2685 206.215 43.8498L171.962 70.9592C182.016 83.6625 187.482 99.3844 187.482 115.583C187.482 155.265 155.265 187.483 115.582 187.483C75.9 187.483 43.6844 155.265 43.6844 115.583C43.6844 75.8984 75.9 43.6829 115.582 43.6829C126.261 43.6829 136.806 46.0597 146.452 50.6445L165.204 11.1923Z" fill="#23A3FF"/>
<mask id="mask0_8_110" style="mask-type:luminance" maskUnits="userSpaceOnUse" x="0" y="0" width="232" height="232">
<path fill-rule="evenodd" clip-rule="evenodd" d="M165.204 11.1923C149.7 3.82533 132.75 0.000223841 115.582 0.000223841C51.7908 0.000223841 0 51.7892 0 115.583C0 179.374 51.7908 231.165 115.582 231.165C179.374 231.165 231.167 179.374 231.167 115.583C231.167 89.5448 222.374 64.2685 206.215 43.8499L171.962 70.9592C182.016 83.6625 187.482 99.3844 187.482 115.583C187.482 155.265 155.265 187.483 115.582 187.483C75.9 187.483 43.6844 155.265 43.6844 115.583C43.6844 75.8984 75.9 43.6829 115.582 43.6829C126.261 43.6829 136.806 46.0597 146.452 50.6445L165.204 11.1923Z" fill="white"/>
</mask>
<g mask="url(#mask0_8_110)">
<path fill-rule="evenodd" clip-rule="evenodd" d="M56.1597 75.4299C56.1597 75.4299 10.2564 132.934 63.6917 227.562L-4.63197 189.208L-30.0494 78.1001L4.25587 -23.6365L184.67 -5.37486L191.912 56.3392L56.1597 75.4299Z" fill="#065389"/>
</g>
<path fill-rule="evenodd" clip-rule="evenodd" d="M126.375 161.77C126.375 161.77 167.874 129.021 199.086 104.393C208.074 97.3005 213.877 86.9273 215.215 75.56C216.555 64.1908 213.325 52.7543 206.233 43.7661C206.233 43.764 206.233 43.7641 206.233 43.7641C206.233 43.7641 164.734 76.5133 133.52 101.142C124.532 108.234 118.731 118.605 117.389 129.974C116.049 141.346 119.279 152.782 126.373 161.77C126.375 161.77 126.375 161.77 126.375 161.77Z" fill="#065389"/>
</svg>
