<svg width="36" height="32" viewBox="0 0 36 32" fill="none" xmlns="http://www.w3.org/2000/svg">
<rect width="35.4699" height="32" rx="2" fill="white"/>
<path fill-rule="evenodd" clip-rule="evenodd" d="M23.0337 3.17408C24.4981 3.17408 25.6875 4.36321 25.6875 5.82789C25.6875 7.29233 24.4981 8.48169 23.0337 8.48169C21.5688 8.48169 20.3799 7.29233 20.3799 5.82789C20.3799 4.36321 21.5688 3.17408 23.0337 3.17408Z" fill="#065389"/>
<path fill-rule="evenodd" clip-rule="evenodd" d="M24.0104 3.35565C22.1325 2.46332 20.0795 2 18 2C10.2732 2 4 8.27296 4 16C4 23.7268 10.2732 30 18 30C25.7268 30 32.0002 23.7268 32.0002 16C32.0002 12.8461 30.9352 9.78452 28.9778 7.31131L24.829 10.5949C26.0467 12.1336 26.7089 14.038 26.7089 16C26.7089 20.8065 22.8065 24.7089 18 24.7089C13.1934 24.7089 9.2913 20.8065 9.2913 16C9.2913 11.1932 13.1934 7.29108 18 7.29108C19.2934 7.29108 20.5706 7.57898 21.739 8.13431L24.0104 3.35565Z" fill="#23A3FF"/>
<mask id="mask0_13_159" style="mask-type:luminance" maskUnits="userSpaceOnUse" x="4" y="2" width="29" height="28">
<path fill-rule="evenodd" clip-rule="evenodd" d="M24.0104 3.35565C22.1325 2.46332 20.0794 2 18 2C10.2732 2 4 8.27296 4 16C4 23.7268 10.2732 30 18 30C25.7268 30 32.0002 23.7268 32.0002 16C32.0002 12.8461 30.9352 9.78452 28.9778 7.31131L24.829 10.5949C26.0467 12.1336 26.7089 14.038 26.7089 16C26.7089 20.8065 22.8065 24.7089 18 24.7089C13.1934 24.7089 9.2913 20.8065 9.2913 16C9.2913 11.1932 13.1934 7.29108 18 7.29108C19.2934 7.29108 20.5706 7.57898 21.739 8.13431L24.0104 3.35565Z" fill="white"/>
</mask>
<g mask="url(#mask0_13_159)">
<path fill-rule="evenodd" clip-rule="evenodd" d="M10.8025 11.1365C10.8025 11.1365 5.24242 18.1017 11.7148 29.5636L3.43906 24.9179L0.360352 11.4599L4.5156 -0.862985L26.3683 1.34896L27.2456 8.82411L10.8025 11.1365Z" fill="#065389"/>
</g>
<path fill-rule="evenodd" clip-rule="evenodd" d="M19.3075 21.5946C19.3075 21.5946 24.3341 17.6278 28.1147 14.6447C29.2034 13.7857 29.9062 12.5292 30.0683 11.1523C30.2306 9.77523 29.8394 8.38998 28.9803 7.30127C28.9803 7.30102 28.9803 7.30103 28.9803 7.30103C28.9803 7.30103 23.9537 11.2678 20.173 14.2509C19.0843 15.11 18.3817 16.3662 18.2191 17.7433C18.0567 19.1206 18.448 20.5059 19.3073 21.5946C19.3075 21.5946 19.3075 21.5946 19.3075 21.5946Z" fill="#065389"/>
</svg>
